<svg xmlns="http://www.w3.org/2000/svg" width="512" height="512" viewBox="0 0 512 512">
  <rect width="512" height="512" rx="96" fill="#2A3F8F"/>
  <rect x="42" y="42" width="428" height="428" rx="72" fill="none" stroke="#FFFFFF" stroke-opacity=".2" stroke-width="10"/>
  <path d="M157 132h109c62 0 99 28 99 77 0 28-15 50-41 62 34 10 53 35 53 70 0 56-43 89-112 89H157V132zm67 51v66h36c25 0 38-12 38-34 0-21-14-32-39-32h-35zm0 116v79h46c28 0 43-14 43-40 0-26-15-39-45-39h-44z" fill="#FFFFFF"/>
  <text x="256" y="466" text-anchor="middle" font-family="Arial, sans-serif" font-size="25" font-weight="700" letter-spacing="2" fill="#FFFFFF">BORRIBO</text>
</svg>
